<svg width="568" height="218" viewBox="0 0 568 218" fill="none" xmlns="http://www.w3.org/2000/svg">
<path d="M97.515 1.99718C48.2 5.48418 8.805 44.8802 5.318 94.1942C5.046 98.0422 8.084 101.318 11.941 101.318H98.001C99.762 101.318 101.451 100.619 102.696 99.3734C103.941 98.1281 104.641 96.4392 104.641 94.6782V8.62018C104.641 4.76318 101.365 1.72718 97.517 1.99718H97.515ZM219.587 94.7762C216.1 45.4622 176.704 6.06618 127.39 2.57918C123.542 2.30718 120.266 5.34518 120.266 9.20218V95.2622C120.266 97.0232 120.966 98.7121 122.211 99.9574C123.456 101.203 125.145 101.902 126.906 101.902H212.964C216.821 101.902 219.857 98.6262 219.587 94.7782V94.7762ZM210.193 115.002C160.879 118.489 121.483 157.885 117.996 207.199C117.724 211.047 120.762 214.323 124.619 214.323H210.679C212.44 214.323 214.129 213.624 215.374 212.378C216.619 211.133 217.319 209.444 217.319 207.683V121.625C217.319 117.768 214.043 114.732 210.195 115.002H210.193ZM5.317 123.806C8.804 173.12 48.2 212.516 97.514 216.003C101.362 216.275 104.638 213.237 104.638 209.38V123.32C104.638 121.559 103.938 119.87 102.693 118.625C101.448 117.38 99.759 116.68 97.998 116.68H11.94C8.083 116.68 5.047 119.956 5.317 123.804V123.806ZM243.57 181.7V125.84H255.89C260.75 125.84 264.65 126.55 267.59 127.97C270.53 129.39 272.657 131.354 273.97 133.86C275.29 136.367 275.95 139.244 275.95 142.49C275.95 148.417 274.227 152.987 270.78 156.2C267.333 159.42 262.117 161.03 255.13 161.03H252.16V181.7H243.57ZM252.16 153.51H255.35C258.697 153.51 261.23 152.977 262.95 151.91C264.677 150.844 265.843 149.527 266.45 147.96C267.057 146.387 267.36 144.867 267.36 143.4C267.36 141.627 267.03 139.98 266.37 138.46C265.717 136.94 264.577 135.697 262.95 134.73C261.33 133.77 259.05 133.29 256.11 133.29H252.16V153.51Z" fill="#111111"/>
<path d="M283.78 181.7V125.84H308.25V133.29H292.21V148.72H305.13V156.32H292.21V174.18H310.76V181.7H283.78Z" fill="#111111"/>
<path d="M315.7 181.7L332.8 152.59L316.69 125.84H326.95L337.51 145.37L348.38 125.84H358.41L342.22 152.44L360.01 181.7H349.9L337.59 159.59L325.5 181.7H315.7Z" fill="#111111"/>
<path d="M367.15 181.7V125.84H391.62V133.29H375.59V148.72H388.51V156.32H375.59V174.18H394.13V181.7H367.15Z" fill="#111111"/>
<path d="M402.72 181.7V125.84H411.31V174.1H427.34V181.7H402.72Z" fill="#111111"/>
<path d="M456.6 125.77H457.44L484.34 181.7H474.54L469.75 170.76H444.14L439.35 181.7H429.85L456.6 125.77ZM456.98 141.95L453.64 149.55L447.56 163.08H466.41L460.4 149.63L457.13 141.95H456.98Z" fill="#111111"/>
<path d="M488.75 181.7V125.84H501.44C504.28 125.84 507.03 126.12 509.69 126.68C512.35 127.233 514.717 128.17 516.79 129.49C518.87 130.81 520.517 132.557 521.73 134.73C522.95 136.91 523.56 139.597 523.56 142.79C523.56 146.49 522.697 149.707 520.97 152.44C519.25 155.18 516.643 157.283 513.15 158.75L526.45 181.7H516.64L505.39 160.57C504.53 160.623 503.48 160.663 502.24 160.69C501 160.717 499.973 160.73 499.16 160.73H497.03V181.7H488.75ZM497.03 153.81H502.43C505.217 153.81 507.46 153.457 509.16 152.75C510.853 152.037 512.157 151.137 513.07 150.05C513.983 148.957 514.603 147.767 514.93 146.48C515.263 145.187 515.43 143.983 515.43 142.87C515.43 140.383 514.86 138.42 513.72 136.98C512.58 135.533 511.007 134.493 509 133.86C507 133.227 504.71 132.91 502.13 132.91H497.03V153.81Z" fill="#111111"/>
<path d="M534.73 181.7V125.84H559.2V133.29H543.17V148.72H556.09V156.32H543.17V174.18H561.71V181.7H534.73Z" fill="#111111"/>
<path d="M283.78 181.7V125.84H308.25V133.29H292.21V148.72H305.13V156.32H292.21V174.18H310.76V181.7H283.78Z" fill="#111111"/>
<path d="M315.7 181.7L332.8 152.59L316.69 125.84H326.95L337.51 145.37L348.38 125.84H358.41L342.22 152.44L360.01 181.7H349.9L337.59 159.59L325.5 181.7H315.7Z" fill="#111111"/>
<path d="M367.15 181.7V125.84H391.62V133.29H375.59V148.72H388.51V156.32H375.59V174.18H394.13V181.7H367.15Z" fill="#111111"/>
<path d="M402.72 181.7V125.84H411.31V174.1H427.34V181.7H402.72Z" fill="#111111"/>
<path d="M456.6 125.77H457.44L484.34 181.7H474.54L469.75 170.76H444.14L439.35 181.7H429.85L456.6 125.77ZM456.98 141.95L453.64 149.55L447.56 163.08H466.41L460.4 149.63L457.13 141.95H456.98Z" fill="#111111"/>
<path d="M488.75 181.7V125.84H501.44C504.28 125.84 507.03 126.12 509.69 126.68C512.35 127.233 514.717 128.17 516.79 129.49C518.87 130.81 520.517 132.557 521.73 134.73C522.95 136.91 523.56 139.597 523.56 142.79C523.56 146.49 522.697 149.707 520.97 152.44C519.25 155.18 516.643 157.283 513.15 158.75L526.45 181.7H516.64L505.39 160.57C504.53 160.623 503.48 160.663 502.24 160.69C501 160.717 499.973 160.73 499.16 160.73H497.03V181.7H488.75ZM497.03 153.81H502.43C505.217 153.81 507.46 153.457 509.16 152.75C510.853 152.037 512.157 151.137 513.07 150.05C513.983 148.957 514.603 147.767 514.93 146.48C515.263 145.187 515.43 143.983 515.43 142.87C515.43 140.383 514.86 138.42 513.72 136.98C512.58 135.533 511.007 134.493 509 133.86C507 133.227 504.71 132.91 502.13 132.91H497.03V153.81Z" fill="#111111"/>
<path d="M534.73 181.7V125.84H559.2V133.29H543.17V148.72H556.09V156.32H543.17V174.18H561.71V181.7H534.73Z" fill="#111111"/>
</svg>
